<svg width="423" height="858" viewBox="0 0 423 858" fill="none" xmlns="http://www.w3.org/2000/svg">
<g clip-path="url(#clip0_1_194)">
<rect width="423" height="858" rx="40" fill="#FEFEFE"/>
<path d="M76.0683 297.038V300.21H61.8983V297.038H76.0683ZM76.0683 303.278V306.45H61.8983V303.278H76.0683Z" fill="#373737"/>
<path d="M291.747 309.68C294.307 307.547 296.347 305.773 297.867 304.36C299.387 302.92 300.654 301.427 301.667 299.88C302.681 298.333 303.187 296.813 303.187 295.32C303.187 293.96 302.867 292.893 302.227 292.12C301.587 291.347 300.601 290.96 299.267 290.96C297.934 290.96 296.907 291.413 296.187 292.32C295.467 293.2 295.094 294.413 295.067 295.96H289.627C289.734 292.76 290.681 290.333 292.467 288.68C294.281 287.027 296.574 286.2 299.347 286.2C302.387 286.2 304.721 287.013 306.347 288.64C307.974 290.24 308.787 292.36 308.787 295C308.787 297.08 308.227 299.067 307.107 300.96C305.987 302.853 304.707 304.507 303.267 305.92C301.827 307.307 299.947 308.987 297.627 310.96H309.427V315.6H289.667V311.44L291.747 309.68ZM312.956 301.04C312.956 296.427 313.783 292.813 315.436 290.2C317.116 287.587 319.889 286.28 323.756 286.28C327.623 286.28 330.383 287.587 332.036 290.2C333.716 292.813 334.556 296.427 334.556 301.04C334.556 305.68 333.716 309.32 332.036 311.96C330.383 314.6 327.623 315.92 323.756 315.92C319.889 315.92 317.116 314.6 315.436 311.96C313.783 309.32 312.956 305.68 312.956 301.04ZM329.036 301.04C329.036 299.067 328.903 297.413 328.636 296.08C328.396 294.72 327.889 293.613 327.116 292.76C326.369 291.907 325.249 291.48 323.756 291.48C322.263 291.48 321.129 291.907 320.356 292.76C319.609 293.613 319.103 294.72 318.836 296.08C318.596 297.413 318.476 299.067 318.476 301.04C318.476 303.067 318.596 304.773 318.836 306.16C319.076 307.52 319.583 308.627 320.356 309.48C321.129 310.307 322.263 310.72 323.756 310.72C325.249 310.72 326.383 310.307 327.156 309.48C327.929 308.627 328.436 307.52 328.676 306.16C328.916 304.773 329.036 303.067 329.036 301.04ZM338.815 301.04C338.815 296.427 339.642 292.813 341.295 290.2C342.975 287.587 345.749 286.28 349.615 286.28C353.482 286.28 356.242 287.587 357.895 290.2C359.575 292.813 360.415 296.427 360.415 301.04C360.415 305.68 359.575 309.32 357.895 311.96C356.242 314.6 353.482 315.92 349.615 315.92C345.749 315.92 342.975 314.6 341.295 311.96C339.642 309.32 338.815 305.68 338.815 301.04ZM354.895 301.04C354.895 299.067 354.762 297.413 354.495 296.08C354.255 294.72 353.749 293.613 352.975 292.76C352.229 291.907 351.109 291.48 349.615 291.48C348.122 291.48 346.989 291.907 346.215 292.76C345.469 293.613 344.962 294.72 344.695 296.08C344.455 297.413 344.335 299.067 344.335 301.04C344.335 303.067 344.455 304.773 344.695 306.16C344.935 307.52 345.442 308.627 346.215 309.48C346.989 310.307 348.122 310.72 349.615 310.72C351.109 310.72 352.242 310.307 353.015 309.48C353.789 308.627 354.295 307.52 354.535 306.16C354.775 304.773 354.895 303.067 354.895 301.04ZM364.435 310.32V305.92L377.515 287.2H384.035V305.44H387.555V310.32H384.035V316H378.435V310.32H364.435ZM378.795 293.2L370.595 305.44H378.795V293.2Z" fill="#373737"/>
<path d="M215.859 248.25V245.962H220.435V262H217.905V248.25H215.859ZM225.223 262.154C224.768 262.154 224.387 262 224.079 261.692C223.771 261.384 223.617 261.003 223.617 260.548C223.617 260.093 223.771 259.712 224.079 259.404C224.387 259.096 224.768 258.942 225.223 258.942C225.663 258.942 226.037 259.096 226.345 259.404C226.653 259.712 226.807 260.093 226.807 260.548C226.807 261.003 226.653 261.384 226.345 261.692C226.037 262 225.663 262.154 225.223 262.154ZM229.187 253.772C229.187 251.235 229.613 249.255 230.463 247.832C231.329 246.395 232.81 245.676 234.907 245.676C237.005 245.676 238.479 246.395 239.329 247.832C240.195 249.255 240.627 251.235 240.627 253.772C240.627 256.339 240.195 258.348 239.329 259.8C238.479 261.237 237.005 261.956 234.907 261.956C232.81 261.956 231.329 261.237 230.463 259.8C229.613 258.348 229.187 256.339 229.187 253.772ZM238.163 253.772C238.163 252.584 238.083 251.579 237.921 250.758C237.775 249.937 237.467 249.269 236.997 248.756C236.528 248.228 235.831 247.964 234.907 247.964C233.983 247.964 233.287 248.228 232.817 248.756C232.348 249.269 232.033 249.937 231.871 250.758C231.725 251.579 231.651 252.584 231.651 253.772C231.651 255.004 231.725 256.038 231.871 256.874C232.018 257.71 232.326 258.385 232.795 258.898C233.279 259.411 233.983 259.668 234.907 259.668C235.831 259.668 236.528 259.411 236.997 258.898C237.481 258.385 237.797 257.71 237.943 256.874C238.09 256.038 238.163 255.004 238.163 253.772ZM243.281 253.772C243.281 251.235 243.706 249.255 244.557 247.832C245.422 246.395 246.904 245.676 249.001 245.676C251.098 245.676 252.572 246.395 253.423 247.832C254.288 249.255 254.721 251.235 254.721 253.772C254.721 256.339 254.288 258.348 253.423 259.8C252.572 261.237 251.098 261.956 249.001 261.956C246.904 261.956 245.422 261.237 244.557 259.8C243.706 258.348 243.281 256.339 243.281 253.772ZM252.257 253.772C252.257 252.584 252.176 251.579 252.015 250.758C251.868 249.937 251.56 249.269 251.091 248.756C250.622 248.228 249.925 247.964 249.001 247.964C248.077 247.964 247.38 248.228 246.911 248.756C246.442 249.269 246.126 249.937 245.965 250.758C245.818 251.579 245.745 252.584 245.745 253.772C245.745 255.004 245.818 256.038 245.965 256.874C246.112 257.71 246.42 258.385 246.889 258.898C247.373 259.411 248.077 259.668 249.001 259.668C249.925 259.668 250.622 259.411 251.091 258.898C251.575 258.385 251.89 257.71 252.037 256.874C252.184 256.038 252.257 255.004 252.257 253.772ZM257.375 253.772C257.375 251.235 257.8 249.255 258.651 247.832C259.516 246.395 260.997 245.676 263.095 245.676C265.192 245.676 266.666 246.395 267.517 247.832C268.382 249.255 268.815 251.235 268.815 253.772C268.815 256.339 268.382 258.348 267.517 259.8C266.666 261.237 265.192 261.956 263.095 261.956C260.997 261.956 259.516 261.237 258.651 259.8C257.8 258.348 257.375 256.339 257.375 253.772ZM266.351 253.772C266.351 252.584 266.27 251.579 266.109 250.758C265.962 249.937 265.654 249.269 265.185 248.756C264.715 248.228 264.019 247.964 263.095 247.964C262.171 247.964 261.474 248.228 261.005 248.756C260.535 249.269 260.22 249.937 260.059 250.758C259.912 251.579 259.839 252.584 259.839 253.772C259.839 255.004 259.912 256.038 260.059 256.874C260.205 257.71 260.513 258.385 260.983 258.898C261.467 259.411 262.171 259.668 263.095 259.668C264.019 259.668 264.715 259.411 265.185 258.898C265.669 258.385 265.984 257.71 266.131 256.874C266.277 256.038 266.351 255.004 266.351 253.772ZM286.907 258.964L283.563 255.62L280.219 258.964L278.569 257.314L281.935 253.97L278.657 250.692L280.263 249.086L283.541 252.364L286.819 249.086L288.469 250.736L285.191 254.014L288.513 257.358L286.907 258.964ZM299.667 258.59C301.075 257.373 302.182 256.375 302.989 255.598C303.81 254.806 304.492 253.985 305.035 253.134C305.578 252.283 305.849 251.433 305.849 250.582C305.849 249.702 305.636 249.013 305.211 248.514C304.8 248.015 304.148 247.766 303.253 247.766C302.388 247.766 301.713 248.045 301.229 248.602C300.76 249.145 300.51 249.878 300.481 250.802H298.061C298.105 249.13 298.604 247.854 299.557 246.974C300.525 246.079 301.75 245.632 303.231 245.632C304.83 245.632 306.076 246.072 306.971 246.952C307.88 247.832 308.335 249.005 308.335 250.472C308.335 251.528 308.064 252.547 307.521 253.53C306.993 254.498 306.355 255.371 305.607 256.148C304.874 256.911 303.935 257.798 302.791 258.81L301.801 259.69H308.775V261.78H298.083V259.954L299.667 258.59ZM328.837 255.114H324.393V259.668H322.061V255.114H317.617V253.002H322.061V248.448H324.393V253.002H328.837V255.114ZM339.499 258.59C340.907 257.373 342.014 256.375 342.821 255.598C343.642 254.806 344.324 253.985 344.867 253.134C345.41 252.283 345.681 251.433 345.681 250.582C345.681 249.702 345.468 249.013 345.043 248.514C344.632 248.015 343.98 247.766 343.085 247.766C342.22 247.766 341.545 248.045 341.061 248.602C340.592 249.145 340.342 249.878 340.313 250.802H337.893C337.937 249.13 338.436 247.854 339.389 246.974C340.357 246.079 341.582 245.632 343.063 245.632C344.662 245.632 345.908 246.072 346.803 246.952C347.712 247.832 348.167 249.005 348.167 250.472C348.167 251.528 347.896 252.547 347.353 253.53C346.825 254.498 346.187 255.371 345.439 256.148C344.706 256.911 343.767 257.798 342.623 258.81L341.633 259.69H348.607V261.78H337.915V259.954L339.499 258.59ZM366.249 258.964L362.905 255.62L359.561 258.964L357.911 257.314L361.277 253.97L357.999 250.692L359.605 249.086L362.883 252.364L366.161 249.086L367.811 250.736L364.533 254.014L367.855 257.358L366.249 258.964ZM379.009 258.59C380.417 257.373 381.524 256.375 382.331 255.598C383.152 254.806 383.834 253.985 384.377 253.134C384.919 252.283 385.191 251.433 385.191 250.582C385.191 249.702 384.978 249.013 384.553 248.514C384.142 248.015 383.489 247.766 382.595 247.766C381.729 247.766 381.055 248.045 380.571 248.602C380.101 249.145 379.852 249.878 379.823 250.802H377.403C377.447 249.13 377.945 247.854 378.899 246.974C379.867 246.079 381.091 245.632 382.573 245.632C384.171 245.632 385.418 246.072 386.313 246.952C387.222 247.832 387.677 249.005 387.677 250.472C387.677 251.528 387.405 252.547 386.863 253.53C386.335 254.498 385.697 255.371 384.949 256.148C384.215 256.911 383.277 257.798 382.133 258.81L381.143 259.69H388.117V261.78H377.425V259.954L379.009 258.59Z" fill="#373737" fill-opacity="0.5"/>
<g filter="url(#filter0_d_1_194)">
<g clip-path="url(#clip1_1_194)">
<rect y="351" width="423" height="507" rx="30" fill="#A9DCFD"/>
<g filter="url(#filter1_d_1_194)">
<rect y="328" width="423" height="537" rx="30" fill="#E6F6FF" fill-opacity="0.2" shape-rendering="crispEdges"/>
</g>
</g>
</g>
<g filter="url(#filter2_d_1_194)">
<rect x="319" y="377" width="70" height="430" rx="35" fill="white" fill-opacity="0.3" shape-rendering="crispEdges"/>
</g>
<g filter="url(#filter3_d_1_194)">
<circle cx="354" cy="772" r="35" fill="white" fill-opacity="0.2" shape-rendering="crispEdges"/>
</g>
<path d="M354.176 408.104C353.518 408.104 352.972 407.905 352.538 407.506C352.122 407.09 351.914 406.579 351.914 405.972C351.914 405.365 352.122 404.863 352.538 404.464C352.972 404.048 353.518 403.84 354.176 403.84C354.818 403.84 355.346 404.048 355.762 404.464C356.178 404.863 356.386 405.365 356.386 405.972C356.386 406.579 356.178 407.09 355.762 407.506C355.346 407.905 354.818 408.104 354.176 408.104ZM360.728 410.132V413.304H347.468V410.132H360.728ZM354.176 419.57C353.518 419.57 352.972 419.371 352.538 418.972C352.122 418.556 351.914 418.045 351.914 417.438C351.914 416.831 352.122 416.329 352.538 415.93C352.972 415.514 353.518 415.306 354.176 415.306C354.818 415.306 355.346 415.514 355.762 415.93C356.178 416.329 356.386 416.831 356.386 417.438C356.386 418.045 356.178 418.556 355.762 418.972C355.346 419.371 354.818 419.57 354.176 419.57Z" fill="#373737"/>
<g filter="url(#filter4_d_1_194)">
<rect x="34" y="377" width="70" height="70" rx="35" fill="white" fill-opacity="0.3" shape-rendering="crispEdges"/>
</g>
<g filter="url(#filter5_d_1_194)">
<circle cx="69" cy="502" r="35" fill="white" fill-opacity="0.3"/>
<circle cx="69" cy="592" r="35" fill="white" fill-opacity="0.3"/>
<circle cx="69" cy="682" r="35" fill="white" fill-opacity="0.3"/>
<circle cx="69" cy="772" r="35" fill="white" fill-opacity="0.3"/>
</g>
<g filter="url(#filter6_d_1_194)">
<circle cx="164" cy="502" r="35" fill="white" fill-opacity="0.3"/>
<circle cx="164" cy="592" r="35" fill="white" fill-opacity="0.3"/>
<circle cx="164" cy="682" r="35" fill="white" fill-opacity="0.3"/>
<circle cx="164" cy="772" r="35" fill="white" fill-opacity="0.3"/>
</g>
<g filter="url(#filter7_d_1_194)">
<circle cx="259" cy="502" r="35" fill="white" fill-opacity="0.3"/>
<circle cx="259" cy="592" r="35" fill="white" fill-opacity="0.3"/>
<circle cx="259" cy="682" r="35" fill="white" fill-opacity="0.3"/>
<circle cx="259" cy="772" r="35" fill="white" fill-opacity="0.3"/>
</g>
<path d="M69.029 781.182C68.3704 781.182 67.8244 780.983 67.391 780.584C66.975 780.168 66.767 779.657 66.767 779.05C66.767 778.443 66.975 777.941 67.391 777.542C67.8244 777.126 68.3704 776.918 69.029 776.918C69.6704 776.918 70.199 777.126 70.615 777.542C71.031 777.941 71.239 778.443 71.239 779.05C71.239 779.657 71.031 780.168 70.615 780.584C70.199 780.983 69.6704 781.182 69.029 781.182Z" fill="#373737"/>
<path d="M156.974 771.276C156.974 768.277 157.511 765.929 158.586 764.23C159.678 762.531 161.48 761.682 163.994 761.682C166.507 761.682 168.301 762.531 169.376 764.23C170.468 765.929 171.014 768.277 171.014 771.276C171.014 774.292 170.468 776.658 169.376 778.374C168.301 780.09 166.507 780.948 163.994 780.948C161.48 780.948 159.678 780.09 158.586 778.374C157.511 776.658 156.974 774.292 156.974 771.276ZM167.426 771.276C167.426 769.993 167.339 768.919 167.166 768.052C167.01 767.168 166.68 766.449 166.178 765.894C165.692 765.339 164.964 765.062 163.994 765.062C163.023 765.062 162.286 765.339 161.784 765.894C161.298 766.449 160.969 767.168 160.796 768.052C160.64 768.919 160.562 769.993 160.562 771.276C160.562 772.593 160.64 773.703 160.796 774.604C160.952 775.488 161.281 776.207 161.784 776.762C162.286 777.299 163.023 777.568 163.994 777.568C164.964 777.568 165.701 777.299 166.204 776.762C166.706 776.207 167.036 775.488 167.192 774.604C167.348 773.703 167.426 772.593 167.426 771.276Z" fill="#373737"/>
<path d="M243.569 771.276C243.569 768.277 244.107 765.929 245.181 764.23C246.273 762.531 248.076 761.682 250.589 761.682C253.103 761.682 254.897 762.531 255.971 764.23C257.063 765.929 257.609 768.277 257.609 771.276C257.609 774.292 257.063 776.658 255.971 778.374C254.897 780.09 253.103 780.948 250.589 780.948C248.076 780.948 246.273 780.09 245.181 778.374C244.107 776.658 243.569 774.292 243.569 771.276ZM254.021 771.276C254.021 769.993 253.935 768.919 253.761 768.052C253.605 767.168 253.276 766.449 252.773 765.894C252.288 765.339 251.56 765.062 250.589 765.062C249.619 765.062 248.882 765.339 248.379 765.894C247.894 766.449 247.565 767.168 247.391 768.052C247.235 768.919 247.157 769.993 247.157 771.276C247.157 772.593 247.235 773.703 247.391 774.604C247.547 775.488 247.877 776.207 248.379 776.762C248.882 777.299 249.619 777.568 250.589 777.568C251.56 777.568 252.297 777.299 252.799 776.762C253.302 776.207 253.631 775.488 253.787 774.604C253.943 773.703 254.021 772.593 254.021 771.276ZM260.378 771.276C260.378 768.277 260.915 765.929 261.99 764.23C263.082 762.531 264.885 761.682 267.398 761.682C269.911 761.682 271.705 762.531 272.78 764.23C273.872 765.929 274.418 768.277 274.418 771.276C274.418 774.292 273.872 776.658 272.78 778.374C271.705 780.09 269.911 780.948 267.398 780.948C264.885 780.948 263.082 780.09 261.99 778.374C260.915 776.658 260.378 774.292 260.378 771.276ZM270.83 771.276C270.83 769.993 270.743 768.919 270.57 768.052C270.414 767.168 270.085 766.449 269.582 765.894C269.097 765.339 268.369 765.062 267.398 765.062C266.427 765.062 265.691 765.339 265.188 765.894C264.703 766.449 264.373 767.168 264.2 768.052C264.044 768.919 263.966 769.993 263.966 771.276C263.966 772.593 264.044 773.703 264.2 774.604C264.356 775.488 264.685 776.207 265.188 776.762C265.691 777.299 266.427 777.568 267.398 777.568C268.369 777.568 269.105 777.299 269.608 776.762C270.111 776.207 270.44 775.488 270.596 774.604C270.752 773.703 270.83 772.593 270.83 771.276Z" fill="#373737"/>
<path d="M361.068 767.038V770.21H346.898V767.038H361.068ZM361.068 773.278V776.45H346.898V773.278H361.068Z" fill="#373737"/>
<path d="M360.632 683.33H355.718V688.374H352.286V683.33H347.372V680.158H352.286V675.114H355.718V680.158H360.632V683.33Z" fill="#373737"/>
<path d="M359.291 590.184V593.252H348.267V590.184H359.291Z" fill="#373737"/>
<path d="M357.771 507.802L353.975 504.006L350.205 507.776L347.839 505.41L351.609 501.614L347.943 497.948L350.309 495.582L353.975 499.248L357.641 495.582L360.033 497.948L356.367 501.614L360.163 505.436L357.771 507.802Z" fill="#373737"/>
<path d="M75.3199 674.802L68.4039 691H64.7119L71.6799 675.218H62.7879V672.098H75.3199V674.802Z" fill="#373737"/>
<path d="M160.196 680.964C158.463 680.063 157.596 678.667 157.596 676.778C157.596 675.842 157.83 674.993 158.298 674.23C158.784 673.45 159.503 672.835 160.456 672.384C161.427 671.916 162.606 671.682 163.992 671.682C165.379 671.682 166.549 671.916 167.502 672.384C168.473 672.835 169.192 673.45 169.66 674.23C170.146 674.993 170.388 675.842 170.388 676.778C170.388 677.731 170.154 678.572 169.686 679.3C169.218 680.011 168.594 680.565 167.814 680.964C168.768 681.38 169.513 681.987 170.05 682.784C170.588 683.581 170.856 684.526 170.856 685.618C170.856 686.797 170.553 687.828 169.946 688.712C169.357 689.579 168.542 690.246 167.502 690.714C166.462 691.182 165.292 691.416 163.992 691.416C162.692 691.416 161.522 691.182 160.482 690.714C159.46 690.246 158.645 689.579 158.038 688.712C157.449 687.828 157.154 686.797 157.154 685.618C157.154 684.526 157.423 683.581 157.96 682.784C158.498 681.969 159.243 681.363 160.196 680.964ZM166.852 677.298C166.852 676.449 166.592 675.79 166.072 675.322C165.57 674.854 164.876 674.62 163.992 674.62C163.126 674.62 162.432 674.854 161.912 675.322C161.41 675.79 161.158 676.457 161.158 677.324C161.158 678.104 161.418 678.728 161.938 679.196C162.476 679.664 163.16 679.898 163.992 679.898C164.824 679.898 165.509 679.664 166.046 679.196C166.584 678.711 166.852 678.078 166.852 677.298ZM163.992 682.55C163.004 682.55 162.198 682.801 161.574 683.304C160.968 683.807 160.664 684.526 160.664 685.462C160.664 686.329 160.959 687.039 161.548 687.594C162.155 688.131 162.97 688.4 163.992 688.4C165.015 688.4 165.821 688.123 166.41 687.568C167 687.013 167.294 686.311 167.294 685.462C167.294 684.543 166.991 683.833 166.384 683.33C165.778 682.81 164.98 682.55 163.992 682.55Z" fill="#373737"/>
<path d="M256.452 685.67C256.591 686.433 256.903 687.022 257.388 687.438C257.891 687.837 258.558 688.036 259.39 688.036C260.465 688.036 261.245 687.594 261.73 686.71C262.216 685.809 262.458 684.301 262.458 682.186C262.06 682.741 261.496 683.174 260.768 683.486C260.058 683.798 259.286 683.954 258.454 683.954C257.345 683.954 256.34 683.729 255.438 683.278C254.554 682.81 253.852 682.125 253.332 681.224C252.812 680.305 252.552 679.196 252.552 677.896C252.552 675.972 253.124 674.447 254.268 673.32C255.412 672.176 256.972 671.604 258.948 671.604C261.41 671.604 263.143 672.393 264.148 673.97C265.171 675.547 265.682 677.922 265.682 681.094C265.682 683.347 265.483 685.193 265.084 686.632C264.703 688.071 264.036 689.163 263.082 689.908C262.146 690.653 260.864 691.026 259.234 691.026C257.952 691.026 256.86 690.783 255.958 690.298C255.057 689.795 254.364 689.145 253.878 688.348C253.41 687.533 253.142 686.641 253.072 685.67H256.452ZM259.208 680.99C260.11 680.99 260.82 680.713 261.34 680.158C261.86 679.603 262.12 678.858 262.12 677.922C262.12 676.899 261.843 676.111 261.288 675.556C260.751 674.984 260.014 674.698 259.078 674.698C258.142 674.698 257.397 674.993 256.842 675.582C256.305 676.154 256.036 676.917 256.036 677.87C256.036 678.789 256.296 679.543 256.816 680.132C257.354 680.704 258.151 680.99 259.208 680.99Z" fill="#373737"/>
<path d="M61.6273 597.308V594.448L70.1293 582.28H74.3673V594.136H76.6553V597.308H74.3673V601H70.7273V597.308H61.6273ZM70.9613 586.18L65.6313 594.136H70.9613V586.18Z" fill="#373737"/>
<path d="M169.752 585.192H161.328V589.638C161.692 589.187 162.212 588.823 162.888 588.546C163.564 588.251 164.283 588.104 165.046 588.104C166.432 588.104 167.568 588.407 168.452 589.014C169.336 589.621 169.977 590.401 170.376 591.354C170.774 592.29 170.974 593.295 170.974 594.37C170.974 596.363 170.402 597.967 169.258 599.18C168.131 600.393 166.519 601 164.422 601C162.446 601 160.868 600.506 159.69 599.518C158.511 598.53 157.844 597.239 157.688 595.644H161.224C161.38 596.337 161.726 596.892 162.264 597.308C162.818 597.724 163.52 597.932 164.37 597.932C165.392 597.932 166.164 597.611 166.684 596.97C167.204 596.329 167.464 595.479 167.464 594.422C167.464 593.347 167.195 592.533 166.658 591.978C166.138 591.406 165.366 591.12 164.344 591.12C163.616 591.12 163.009 591.302 162.524 591.666C162.038 592.03 161.692 592.515 161.484 593.122H158V581.994H169.752V585.192Z" fill="#373737"/>
<path d="M261.891 586.778C261.717 586.05 261.414 585.504 260.981 585.14C260.565 584.776 259.958 584.594 259.161 584.594C257.965 584.594 257.081 585.079 256.509 586.05C255.954 587.003 255.668 588.563 255.651 590.73C256.067 590.037 256.673 589.499 257.471 589.118C258.268 588.719 259.135 588.52 260.071 588.52C261.197 588.52 262.194 588.763 263.061 589.248C263.927 589.733 264.603 590.444 265.089 591.38C265.574 592.299 265.817 593.408 265.817 594.708C265.817 595.939 265.565 597.039 265.063 598.01C264.577 598.963 263.858 599.709 262.905 600.246C261.951 600.783 260.816 601.052 259.499 601.052C257.696 601.052 256.275 600.653 255.235 599.856C254.212 599.059 253.493 597.949 253.077 596.528C252.678 595.089 252.479 593.321 252.479 591.224C252.479 588.052 253.025 585.66 254.117 584.048C255.209 582.419 256.933 581.604 259.291 581.604C261.111 581.604 262.523 582.098 263.529 583.086C264.534 584.074 265.115 585.305 265.271 586.778H261.891ZM259.239 591.51C258.32 591.51 257.549 591.779 256.925 592.316C256.301 592.853 255.989 593.633 255.989 594.656C255.989 595.679 256.275 596.485 256.847 597.074C257.436 597.663 258.259 597.958 259.317 597.958C260.253 597.958 260.989 597.672 261.527 597.1C262.081 596.528 262.359 595.757 262.359 594.786C262.359 593.781 262.09 592.983 261.553 592.394C261.033 591.805 260.261 591.51 259.239 591.51Z" fill="#373737"/>
<path d="M65.226 495.4V492.046H71.492V511H67.748V495.4H65.226Z" fill="#373737"/>
<path d="M159.057 506.892C160.721 505.505 162.047 504.353 163.035 503.434C164.023 502.498 164.846 501.527 165.505 500.522C166.164 499.517 166.493 498.529 166.493 497.558C166.493 496.674 166.285 495.981 165.869 495.478C165.453 494.975 164.812 494.724 163.945 494.724C163.078 494.724 162.411 495.019 161.943 495.608C161.475 496.18 161.232 496.969 161.215 497.974H157.679C157.748 495.894 158.364 494.317 159.525 493.242C160.704 492.167 162.194 491.63 163.997 491.63C165.973 491.63 167.49 492.159 168.547 493.216C169.604 494.256 170.133 495.634 170.133 497.35C170.133 498.702 169.769 499.993 169.041 501.224C168.313 502.455 167.481 503.529 166.545 504.448C165.609 505.349 164.387 506.441 162.879 507.724H170.549V510.74H157.705V508.036L159.057 506.892Z" fill="#373737"/>
<path d="M252.648 497.038C252.734 495.305 253.341 493.97 254.468 493.034C255.612 492.081 257.111 491.604 258.966 491.604C260.231 491.604 261.314 491.829 262.216 492.28C263.117 492.713 263.793 493.311 264.244 494.074C264.712 494.819 264.946 495.669 264.946 496.622C264.946 497.714 264.66 498.641 264.088 499.404C263.533 500.149 262.866 500.652 262.086 500.912V501.016C263.091 501.328 263.871 501.883 264.426 502.68C264.998 503.477 265.284 504.5 265.284 505.748C265.284 506.788 265.041 507.715 264.556 508.53C264.088 509.345 263.386 509.986 262.45 510.454C261.531 510.905 260.422 511.13 259.122 511.13C257.163 511.13 255.568 510.636 254.338 509.648C253.107 508.66 252.457 507.204 252.388 505.28H255.924C255.958 506.129 256.244 506.814 256.782 507.334C257.336 507.837 258.09 508.088 259.044 508.088C259.928 508.088 260.604 507.845 261.072 507.36C261.557 506.857 261.8 506.216 261.8 505.436C261.8 504.396 261.47 503.651 260.812 503.2C260.153 502.749 259.13 502.524 257.744 502.524H256.99V499.534H257.744C260.205 499.534 261.436 498.711 261.436 497.064C261.436 496.319 261.21 495.738 260.76 495.322C260.326 494.906 259.694 494.698 258.862 494.698C258.047 494.698 257.414 494.923 256.964 495.374C256.53 495.807 256.279 496.362 256.21 497.038H252.648Z" fill="#373737"/>
<path d="M62.6378 417.542H55.4098L54.2138 421H50.3918L56.9178 402.826H61.1558L67.6818 421H63.8338L62.6378 417.542ZM61.6498 414.63L59.0238 407.038L56.3978 414.63H61.6498ZM69.2371 411.9C69.2371 410.115 69.6358 408.52 70.4331 407.116C71.2478 405.695 72.3485 404.594 73.7351 403.814C75.1391 403.017 76.7078 402.618 78.4411 402.618C80.4691 402.618 82.2458 403.138 83.7711 404.178C85.2965 405.218 86.3625 406.657 86.9691 408.494H82.7831C82.3671 407.627 81.7778 406.977 81.0151 406.544C80.2698 406.111 79.4031 405.894 78.4151 405.894C77.3578 405.894 76.4131 406.145 75.5811 406.648C74.7665 407.133 74.1251 407.827 73.6571 408.728C73.2065 409.629 72.9811 410.687 72.9811 411.9C72.9811 413.096 73.2065 414.153 73.6571 415.072C74.1251 415.973 74.7665 416.675 75.5811 417.178C76.4131 417.663 77.3578 417.906 78.4151 417.906C79.4031 417.906 80.2698 417.689 81.0151 417.256C81.7778 416.805 82.3671 416.147 82.7831 415.28H86.9691C86.3625 417.135 85.2965 418.582 83.7711 419.622C82.2631 420.645 80.4865 421.156 78.4411 421.156C76.7078 421.156 75.1391 420.766 73.7351 419.986C72.3485 419.189 71.2478 418.088 70.4331 416.684C69.6358 415.28 69.2371 413.685 69.2371 411.9Z" fill="#373737"/>
<g filter="url(#filter8_d_1_194)">
<rect x="151" y="52" width="122" height="44" rx="22" fill="#A9DCFD"/>
<rect x="151" y="52" width="68" height="44" rx="22" fill="#D8EEFF"/>
<path d="M251.117 74.973C250.277 75.196 249.412 75.3088 248.543 75.3088C245.898 75.3088 243.413 74.2803 241.547 72.4143C240.322 71.1819 239.441 69.6498 238.992 67.9708C238.544 66.2918 238.543 64.5245 238.99 62.845C239.046 62.635 239.045 62.4141 238.989 62.2043C238.932 61.9945 238.822 61.8032 238.668 61.6497C238.514 61.4962 238.323 61.3858 238.113 61.3296C237.903 61.2735 237.682 61.2735 237.472 61.3297C235.37 61.8899 233.451 62.9932 231.91 64.5289C227.08 69.3588 227.08 77.2206 231.91 82.053C233.058 83.2074 234.424 84.1227 235.928 84.7458C237.432 85.369 239.044 85.6877 240.673 85.6834C242.3 85.688 243.913 85.3696 245.416 84.7466C246.92 84.1236 248.285 83.2085 249.433 82.0542C250.97 80.5124 252.073 78.5932 252.633 76.4896C252.689 76.2797 252.688 76.0589 252.632 75.8492C252.575 75.6396 252.465 75.4484 252.311 75.2949C252.158 75.1413 251.967 75.0308 251.757 74.9743C251.547 74.9178 251.326 74.9174 251.117 74.973ZM247.682 80.3022C246.764 81.2254 245.672 81.9573 244.469 82.4557C243.266 82.954 241.976 83.2088 240.674 83.2053C239.371 83.2085 238.081 82.9535 236.878 82.455C235.674 81.9565 234.582 81.2243 233.663 80.3009C229.8 76.4363 229.8 70.1468 233.663 66.2822C234.41 65.5365 235.272 64.916 236.216 64.4447C236.077 66.2277 236.326 68.0196 236.944 69.6979C237.562 71.3761 238.535 72.9012 239.797 74.1688C241.061 75.4344 242.586 76.4101 244.265 77.0286C245.944 77.6471 247.737 77.8935 249.521 77.7509C249.047 78.6934 248.426 79.5545 247.682 80.3022Z" fill="#373737" fill-opacity="0.4"/>
<g clip-path="url(#clip2_1_194)">
<path d="M182.869 79.4445C181.39 79.4445 179.972 78.8571 178.926 77.8114C177.88 76.7658 177.293 75.3475 177.293 73.8687C177.293 72.39 177.88 70.9717 178.926 69.9261C179.972 68.8804 181.39 68.293 182.869 68.293C184.348 68.293 185.766 68.8804 186.811 69.9261C187.857 70.9717 188.445 72.39 188.445 73.8687C188.445 75.3475 187.857 76.7658 186.811 77.8114C185.766 78.8571 184.348 79.4445 182.869 79.4445ZM182.869 81.3031C184.84 81.3031 186.731 80.5199 188.126 79.1256C189.52 77.7314 190.303 75.8405 190.303 73.8687C190.303 71.897 189.52 70.0061 188.126 68.6119C186.731 67.2176 184.84 66.4344 182.869 66.4344C180.897 66.4344 179.006 67.2176 177.612 68.6119C176.218 70.0061 175.434 71.897 175.434 73.8687C175.434 75.8405 176.218 77.7314 177.612 79.1256C179.006 80.5199 180.897 81.3031 182.869 81.3031ZM182.869 59C183.115 59 183.352 59.0979 183.526 59.2722C183.7 59.4465 183.798 59.6828 183.798 59.9293V63.6465C183.798 63.8929 183.7 64.1293 183.526 64.3036C183.352 64.4779 183.115 64.5758 182.869 64.5758C182.622 64.5758 182.386 64.4779 182.212 64.3036C182.037 64.1293 181.939 63.8929 181.939 63.6465V59.9293C181.939 59.6828 182.037 59.4465 182.212 59.2722C182.386 59.0979 182.622 59 182.869 59V59ZM182.869 83.1617C183.115 83.1617 183.352 83.2596 183.526 83.4339C183.7 83.6082 183.798 83.8445 183.798 84.091V87.8082C183.798 88.0547 183.7 88.291 183.526 88.4653C183.352 88.6396 183.115 88.7375 182.869 88.7375C182.622 88.7375 182.386 88.6396 182.212 88.4653C182.037 88.291 181.939 88.0547 181.939 87.8082V84.091C181.939 83.8445 182.037 83.6082 182.212 83.4339C182.386 83.2596 182.622 83.1617 182.869 83.1617ZM197.737 73.8687C197.737 74.1152 197.64 74.3516 197.465 74.5259C197.291 74.7001 197.055 74.798 196.808 74.798H193.091C192.845 74.798 192.608 74.7001 192.434 74.5259C192.26 74.3516 192.162 74.1152 192.162 73.8687C192.162 73.6223 192.26 73.3859 192.434 73.2116C192.608 73.0374 192.845 72.9395 193.091 72.9395H196.808C197.055 72.9395 197.291 73.0374 197.465 73.2116C197.64 73.3859 197.737 73.6223 197.737 73.8687ZM173.576 73.8687C173.576 74.1152 173.478 74.3516 173.304 74.5259C173.129 74.7001 172.893 74.798 172.646 74.798H168.929C168.683 74.798 168.446 74.7001 168.272 74.5259C168.098 74.3516 168 74.1152 168 73.8687C168 73.6223 168.098 73.3859 168.272 73.2116C168.446 73.0374 168.683 72.9395 168.929 72.9395H172.646C172.893 72.9395 173.129 73.0374 173.304 73.2116C173.478 73.3859 173.576 73.6223 173.576 73.8687ZM193.383 63.3547C193.557 63.529 193.655 63.7653 193.655 64.0117C193.655 64.2581 193.557 64.4944 193.383 64.6687L190.755 67.2986C190.668 67.3849 190.566 67.4533 190.453 67.5C190.34 67.5466 190.219 67.5706 190.097 67.5705C189.85 67.5703 189.614 67.4722 189.44 67.2977C189.354 67.2113 189.285 67.1087 189.238 66.9959C189.192 66.8831 189.168 66.7621 189.168 66.64C189.168 66.3934 189.266 66.157 189.441 65.9827L192.069 63.3547C192.243 63.1805 192.479 63.0826 192.726 63.0826C192.972 63.0826 193.209 63.1805 193.383 63.3547ZM176.297 80.4407C176.471 80.615 176.569 80.8513 176.569 81.0977C176.569 81.3442 176.471 81.5805 176.297 81.7548L173.669 84.3828C173.493 84.5521 173.259 84.6458 173.015 84.6436C172.771 84.6415 172.538 84.5438 172.366 84.3715C172.194 84.1992 172.096 83.9661 172.094 83.7225C172.092 83.4788 172.185 83.2441 172.355 83.0688L174.983 80.4407C175.157 80.2665 175.393 80.1687 175.64 80.1687C175.886 80.1687 176.122 80.2665 176.297 80.4407ZM193.383 84.3828C193.209 84.557 192.972 84.6549 192.726 84.6549C192.479 84.6549 192.243 84.557 192.069 84.3828L189.441 81.7548C189.271 81.5795 189.178 81.3448 189.18 81.1011C189.182 80.8574 189.28 80.6244 189.452 80.4521C189.624 80.2798 189.857 80.182 190.101 80.1799C190.345 80.1778 190.579 80.2715 190.755 80.4407L193.383 83.0688C193.557 83.2431 193.655 83.4794 193.655 83.7258C193.655 83.9722 193.557 84.2085 193.383 84.3828ZM176.297 67.2986C176.122 67.4728 175.886 67.5707 175.64 67.5707C175.393 67.5707 175.157 67.4728 174.983 67.2986L172.355 64.6687C172.266 64.583 172.195 64.4804 172.146 64.3671C172.098 64.2537 172.072 64.1317 172.071 64.0084C172.07 63.885 172.093 63.7626 172.14 63.6484C172.187 63.5342 172.256 63.4304 172.343 63.3432C172.43 63.2559 172.534 63.1869 172.648 63.1402C172.763 63.0935 172.885 63.0699 173.008 63.071C173.132 63.0721 173.254 63.0977 173.367 63.1464C173.48 63.1951 173.583 63.2659 173.669 63.3547L176.297 65.9827C176.383 66.0691 176.452 66.1716 176.499 66.2845C176.546 66.3974 176.57 66.5184 176.57 66.6407C176.57 66.7629 176.546 66.8839 176.499 66.9968C176.452 67.1097 176.383 67.2123 176.297 67.2986Z" fill="#373737"/>
</g>
</g>
</g>
<defs>
<filter id="filter0_d_1_194" x="-70" y="276" width="563" height="647" filterUnits="userSpaceOnUse" color-interpolation-filters="sRGB">
<feFlood flood-opacity="0" result="BackgroundImageFix"/>
<feColorMatrix in="SourceAlpha" type="matrix" values="0 0 0 0 0 0 0 0 0 0 0 0 0 0 0 0 0 0 127 0" result="hardAlpha"/>
<feOffset dy="-5"/>
<feGaussianBlur stdDeviation="35"/>
<feComposite in2="hardAlpha" operator="out"/>
<feColorMatrix type="matrix" values="0 0 0 0 0 0 0 0 0 0 0 0 0 0 0 0 0 0 0.1 0"/>
<feBlend mode="normal" in2="BackgroundImageFix" result="effect1_dropShadow_1_194"/>
<feBlend mode="normal" in="SourceGraphic" in2="effect1_dropShadow_1_194" result="shape"/>
</filter>
<filter id="filter1_d_1_194" x="-70" y="253" width="563" height="677" filterUnits="userSpaceOnUse" color-interpolation-filters="sRGB">
<feFlood flood-opacity="0" result="BackgroundImageFix"/>
<feColorMatrix in="SourceAlpha" type="matrix" values="0 0 0 0 0 0 0 0 0 0 0 0 0 0 0 0 0 0 127 0" result="hardAlpha"/>
<feOffset dy="-5"/>
<feGaussianBlur stdDeviation="35"/>
<feComposite in2="hardAlpha" operator="out"/>
<feColorMatrix type="matrix" values="0 0 0 0 0 0 0 0 0 0 0 0 0 0 0 0 0 0 0.1 0"/>
<feBlend mode="normal" in2="BackgroundImageFix" result="effect1_dropShadow_1_194"/>
<feBlend mode="normal" in="SourceGraphic" in2="effect1_dropShadow_1_194" result="shape"/>
</filter>
<filter id="filter2_d_1_194" x="304" y="365" width="100" height="460" filterUnits="userSpaceOnUse" color-interpolation-filters="sRGB">
<feFlood flood-opacity="0" result="BackgroundImageFix"/>
<feColorMatrix in="SourceAlpha" type="matrix" values="0 0 0 0 0 0 0 0 0 0 0 0 0 0 0 0 0 0 127 0" result="hardAlpha"/>
<feOffset dy="3"/>
<feGaussianBlur stdDeviation="7.5"/>
<feComposite in2="hardAlpha" operator="out"/>
<feColorMatrix type="matrix" values="0 0 0 0 0 0 0 0 0 0 0 0 0 0 0 0 0 0 0.05 0"/>
<feBlend mode="normal" in2="BackgroundImageFix" result="effect1_dropShadow_1_194"/>
<feBlend mode="normal" in="SourceGraphic" in2="effect1_dropShadow_1_194" result="shape"/>
</filter>
<filter id="filter3_d_1_194" x="304" y="725" width="100" height="100" filterUnits="userSpaceOnUse" color-interpolation-filters="sRGB">
<feFlood flood-opacity="0" result="BackgroundImageFix"/>
<feColorMatrix in="SourceAlpha" type="matrix" values="0 0 0 0 0 0 0 0 0 0 0 0 0 0 0 0 0 0 127 0" result="hardAlpha"/>
<feOffset dy="3"/>
<feGaussianBlur stdDeviation="7.5"/>
<feComposite in2="hardAlpha" operator="out"/>
<feColorMatrix type="matrix" values="0 0 0 0 0 0 0 0 0 0 0 0 0 0 0 0 0 0 0.05 0"/>
<feBlend mode="normal" in2="BackgroundImageFix" result="effect1_dropShadow_1_194"/>
<feBlend mode="normal" in="SourceGraphic" in2="effect1_dropShadow_1_194" result="shape"/>
</filter>
<filter id="filter4_d_1_194" x="19" y="365" width="100" height="100" filterUnits="userSpaceOnUse" color-interpolation-filters="sRGB">
<feFlood flood-opacity="0" result="BackgroundImageFix"/>
<feColorMatrix in="SourceAlpha" type="matrix" values="0 0 0 0 0 0 0 0 0 0 0 0 0 0 0 0 0 0 127 0" result="hardAlpha"/>
<feOffset dy="3"/>
<feGaussianBlur stdDeviation="7.5"/>
<feComposite in2="hardAlpha" operator="out"/>
<feColorMatrix type="matrix" values="0 0 0 0 0 0 0 0 0 0 0 0 0 0 0 0 0 0 0.05 0"/>
<feBlend mode="normal" in2="BackgroundImageFix" result="effect1_dropShadow_1_194"/>
<feBlend mode="normal" in="SourceGraphic" in2="effect1_dropShadow_1_194" result="shape"/>
</filter>
<filter id="filter5_d_1_194" x="19" y="455" width="100" height="370" filterUnits="userSpaceOnUse" color-interpolation-filters="sRGB">
<feFlood flood-opacity="0" result="BackgroundImageFix"/>
<feColorMatrix in="SourceAlpha" type="matrix" values="0 0 0 0 0 0 0 0 0 0 0 0 0 0 0 0 0 0 127 0" result="hardAlpha"/>
<feOffset dy="3"/>
<feGaussianBlur stdDeviation="7.5"/>
<feComposite in2="hardAlpha" operator="out"/>
<feColorMatrix type="matrix" values="0 0 0 0 0 0 0 0 0 0 0 0 0 0 0 0 0 0 0.05 0"/>
<feBlend mode="normal" in2="BackgroundImageFix" result="effect1_dropShadow_1_194"/>
<feBlend mode="normal" in="SourceGraphic" in2="effect1_dropShadow_1_194" result="shape"/>
</filter>
<filter id="filter6_d_1_194" x="114" y="455" width="100" height="370" filterUnits="userSpaceOnUse" color-interpolation-filters="sRGB">
<feFlood flood-opacity="0" result="BackgroundImageFix"/>
<feColorMatrix in="SourceAlpha" type="matrix" values="0 0 0 0 0 0 0 0 0 0 0 0 0 0 0 0 0 0 127 0" result="hardAlpha"/>
<feOffset dy="3"/>
<feGaussianBlur stdDeviation="7.5"/>
<feComposite in2="hardAlpha" operator="out"/>
<feColorMatrix type="matrix" values="0 0 0 0 0 0 0 0 0 0 0 0 0 0 0 0 0 0 0.05 0"/>
<feBlend mode="normal" in2="BackgroundImageFix" result="effect1_dropShadow_1_194"/>
<feBlend mode="normal" in="SourceGraphic" in2="effect1_dropShadow_1_194" result="shape"/>
</filter>
<filter id="filter7_d_1_194" x="209" y="455" width="100" height="370" filterUnits="userSpaceOnUse" color-interpolation-filters="sRGB">
<feFlood flood-opacity="0" result="BackgroundImageFix"/>
<feColorMatrix in="SourceAlpha" type="matrix" values="0 0 0 0 0 0 0 0 0 0 0 0 0 0 0 0 0 0 127 0" result="hardAlpha"/>
<feOffset dy="3"/>
<feGaussianBlur stdDeviation="7.5"/>
<feComposite in2="hardAlpha" operator="out"/>
<feColorMatrix type="matrix" values="0 0 0 0 0 0 0 0 0 0 0 0 0 0 0 0 0 0 0.05 0"/>
<feBlend mode="normal" in2="BackgroundImageFix" result="effect1_dropShadow_1_194"/>
<feBlend mode="normal" in="SourceGraphic" in2="effect1_dropShadow_1_194" result="shape"/>
</filter>
<filter id="filter8_d_1_194" x="131" y="32" width="162" height="84" filterUnits="userSpaceOnUse" color-interpolation-filters="sRGB">
<feFlood flood-opacity="0" result="BackgroundImageFix"/>
<feColorMatrix in="SourceAlpha" type="matrix" values="0 0 0 0 0 0 0 0 0 0 0 0 0 0 0 0 0 0 127 0" result="hardAlpha"/>
<feOffset/>
<feGaussianBlur stdDeviation="10"/>
<feComposite in2="hardAlpha" operator="out"/>
<feColorMatrix type="matrix" values="0 0 0 0 0.504514 0 0 0 0 0.504514 0 0 0 0 0.504514 0 0 0 0.15 0"/>
<feBlend mode="normal" in2="BackgroundImageFix" result="effect1_dropShadow_1_194"/>
<feBlend mode="normal" in="SourceGraphic" in2="effect1_dropShadow_1_194" result="shape"/>
</filter>
<clipPath id="clip0_1_194">
<rect width="423" height="858" rx="40" fill="white"/>
</clipPath>
<clipPath id="clip1_1_194">
<rect y="351" width="423" height="507" rx="30" fill="white"/>
</clipPath>
<clipPath id="clip2_1_194">
<rect width="29.7375" height="29.7375" fill="white" transform="translate(168 59)"/>
</clipPath>
</defs>
</svg>
