<svg aria-hidden="true" style="position: absolute; width: 0; height: 0; overflow: hidden;" version="1.1" xmlns="http://www.w3.org/2000/svg" xmlns:xlink="http://www.w3.org/1999/xlink">
<defs>
<symbol id="icon-sun" viewBox="0 0 32 32">
<path d="M15.86 21.807c-1.577 0-3.090-0.627-4.205-1.742s-1.742-2.628-1.742-4.206c0-1.577 0.627-3.090 1.742-4.205s2.628-1.742 4.205-1.742c1.577 0 3.090 0.627 4.206 1.742s1.742 2.628 1.742 4.205c0 1.577-0.627 3.090-1.742 4.206s-2.628 1.742-4.206 1.742zM15.86 23.79c2.103 0 4.12-0.835 5.607-2.323s2.323-3.504 2.323-5.607c0-2.103-0.835-4.12-2.323-5.607s-3.504-2.323-5.607-2.323c-2.103 0-4.12 0.835-5.607 2.323s-2.323 3.504-2.323 5.607c0 2.103 0.835 4.12 2.323 5.607s3.504 2.323 5.607 2.323zM15.86 0c0.263 0 0.515 0.104 0.701 0.29s0.29 0.438 0.29 0.701v3.965c0 0.263-0.104 0.515-0.29 0.701s-0.438 0.29-0.701 0.29c-0.263 0-0.515-0.104-0.701-0.29s-0.29-0.438-0.29-0.701v-3.965c0-0.263 0.104-0.515 0.29-0.701s0.438-0.29 0.701-0.29v0zM15.86 25.772c0.263 0 0.515 0.104 0.701 0.29s0.29 0.438 0.29 0.701v3.965c0 0.263-0.104 0.515-0.29 0.701s-0.438 0.29-0.701 0.29c-0.263 0-0.515-0.104-0.701-0.29s-0.29-0.438-0.29-0.701v-3.965c0-0.263 0.104-0.515 0.29-0.701s0.438-0.29 0.701-0.29zM31.72 15.86c0 0.263-0.104 0.515-0.29 0.701s-0.438 0.29-0.701 0.29h-3.965c-0.263 0-0.515-0.104-0.701-0.29s-0.29-0.438-0.29-0.701c0-0.263 0.104-0.515 0.29-0.701s0.438-0.29 0.701-0.29h3.965c0.263 0 0.515 0.104 0.701 0.29s0.29 0.438 0.29 0.701zM5.947 15.86c0 0.263-0.104 0.515-0.29 0.701s-0.438 0.29-0.701 0.29h-3.965c-0.263 0-0.515-0.104-0.701-0.29s-0.29-0.438-0.29-0.701c0-0.263 0.104-0.515 0.29-0.701s0.438-0.29 0.701-0.29h3.965c0.263 0 0.515 0.104 0.701 0.29s0.29 0.438 0.29 0.701zM27.075 4.645c0.186 0.186 0.29 0.438 0.29 0.701s-0.104 0.515-0.29 0.701l-2.803 2.805c-0.092 0.092-0.202 0.165-0.322 0.215s-0.249 0.075-0.38 0.075c-0.263-0-0.515-0.105-0.701-0.291-0.092-0.092-0.165-0.202-0.215-0.322s-0.075-0.249-0.075-0.38c0-0.263 0.105-0.515 0.291-0.701l2.803-2.803c0.186-0.186 0.438-0.29 0.701-0.29s0.515 0.104 0.701 0.29zM8.85 22.87c0.186 0.186 0.29 0.438 0.29 0.701s-0.104 0.515-0.29 0.701l-2.803 2.803c-0.187 0.181-0.437 0.281-0.697 0.278s-0.509-0.106-0.692-0.29-0.288-0.432-0.29-0.692c-0.002-0.26 0.098-0.51 0.278-0.697l2.803-2.803c0.186-0.186 0.438-0.29 0.701-0.29s0.515 0.104 0.701 0.29zM27.075 27.075c-0.186 0.186-0.438 0.29-0.701 0.29s-0.515-0.104-0.701-0.29l-2.803-2.803c-0.18-0.187-0.28-0.437-0.278-0.697s0.107-0.508 0.29-0.692c0.184-0.184 0.432-0.288 0.692-0.29s0.51 0.098 0.697 0.278l2.803 2.803c0.186 0.186 0.29 0.438 0.29 0.701s-0.104 0.515-0.29 0.701zM8.85 8.852c-0.186 0.186-0.438 0.29-0.701 0.29s-0.515-0.104-0.701-0.29l-2.803-2.805c-0.095-0.091-0.17-0.201-0.222-0.322s-0.079-0.251-0.080-0.383c-0.001-0.132 0.024-0.262 0.074-0.384s0.123-0.232 0.217-0.326c0.093-0.093 0.204-0.167 0.326-0.217s0.252-0.075 0.384-0.074c0.132 0.001 0.262 0.028 0.383 0.080s0.23 0.127 0.322 0.222l2.803 2.803c0.092 0.092 0.166 0.201 0.216 0.322s0.076 0.25 0.076 0.38c0 0.13-0.026 0.259-0.076 0.38s-0.123 0.23-0.216 0.322z"></path>
</symbol>
<symbol id="icon-moon" viewBox="0 0 32 32">
<path d="M26.791 17.038c-0.896 0.238-1.818 0.358-2.745 0.358-2.822 0-5.472-1.097-7.462-3.087-1.307-1.315-2.247-2.949-2.725-4.74s-0.48-3.676-0.003-5.467c0.060-0.224 0.059-0.46-0.001-0.683s-0.178-0.428-0.342-0.592c-0.164-0.164-0.368-0.281-0.592-0.341s-0.46-0.060-0.684 0c-2.243 0.598-4.289 1.774-5.933 3.413-5.152 5.152-5.152 13.538 0 18.692 1.225 1.231 2.681 2.208 4.286 2.872s3.325 1.005 5.061 1c1.736 0.005 3.456-0.335 5.060-0.999s3.060-1.641 4.284-2.872c1.639-1.645 2.817-3.692 3.414-5.936 0.059-0.224 0.059-0.459-0.001-0.683s-0.178-0.428-0.342-0.591c-0.164-0.164-0.368-0.282-0.591-0.342s-0.459-0.061-0.683-0.001zM23.127 22.722c-0.979 0.985-2.144 1.765-3.428 2.297s-2.659 0.803-4.048 0.8c-1.389 0.003-2.766-0.269-4.049-0.8s-2.449-1.313-3.429-2.298c-4.121-4.122-4.121-10.831 0-14.953 0.796-0.795 1.716-1.457 2.723-1.96-0.147 1.902 0.118 3.813 0.777 5.603s1.697 3.417 3.043 4.769c1.349 1.35 2.975 2.391 4.766 3.050s3.704 0.923 5.606 0.77c-0.506 1.005-1.168 1.924-1.961 2.721z"></path>
</symbol>
</defs>
</svg>
